<svg xmlns="http://www.w3.org/2000/svg" width="515" height="400" viewBox="0 0 515 400">
  <title>logo</title>
  <g>
    <g>
      <polygon points="515 115 435 115 435 35 80 35 80 115 0 115 0 235 515 235 515 115"/>
      <circle cx="80" cy="115" r="80"/>
      <circle cx="435" cy="115" r="80"/>
    </g>
    <g>
      <circle cx="185" cy="135" r="20" fill="#555"/>
      <circle cx="330" cy="135" r="20" fill="#555"/>
      <rect x="185" y="115" width="145" height="40" fill="#555"/>
    </g>
    <g>
      <circle cx="92.5" cy="107.5" r="32.5" fill="#555"/>
      <circle cx="92.5" cy="107.5" r="17.5" fill="#fa0"/>
    </g>
    <g>
      <circle cx="422.5" cy="107.5" r="32.5" fill="#555"/>
      <circle cx="422.5" cy="107.5" r="17.5" fill="#fa0"/>
    </g>
  </g>
  <rect y="235" width="515" height="130"/>
  <rect x="10.5" y="244.5" width="495" height="110" fill="#f2f2f2" stroke="#000" stroke-miterlimit="10" stroke-width="0.75"/>
  <g>
    <path d="M50.622,295.6,64.4,267.188H75.917L55.846,305.073v22.073H45.4V305.073L25.287,267.188H36.844Z" fill="#fa0"/>
    <path d="M109.765,313.186h-23.2l-4.853,13.96H70.9L93.52,267.188h9.335l22.663,59.958H114.66Zm-20.276-8.4h17.356l-8.678-24.872Z" fill="#fa0"/>
    <path d="M145.794,267.188l17.274,45.957L180.3,267.188H193.75v59.958H183.386V307.38l1.028-26.438-17.685,46.2h-7.445L141.64,280.983l1.028,26.4v19.766H132.3V267.188Z" fill="#fa0"/>
    <path d="M216.454,318.827H243.64v8.319H206.048V267.188h10.406Z" fill="#fa0"/>
    <path d="M280.573,271.184V282.59h9.213v4.035h-9.213v29.724a9.322,9.322,0,0,0,1.336,5.524q1.337,1.814,4.463,1.814a30.38,30.38,0,0,0,3.989-.413l.206,4a16.081,16.081,0,0,1-5.264.694q-5.059,0-7.363-2.945t-2.3-8.668V286.625h-8.185V282.59h8.185V271.184Z"/>
    <path d="M296.448,304.209a26.226,26.226,0,0,1,2.489-11.571,18.687,18.687,0,0,1,17.335-10.871,18.3,18.3,0,0,1,14.4,6.238q5.511,6.238,5.511,16.533v1.029A26.461,26.461,0,0,1,333.69,317.2a18.6,18.6,0,0,1-7.011,7.968,19.213,19.213,0,0,1-10.324,2.8,18.309,18.309,0,0,1-14.375-6.239q-5.532-6.238-5.532-16.533Zm4.936,1.358q0,7.99,4.134,13.117a13.975,13.975,0,0,0,21.633,0q4.134-5.127,4.134-13.528v-.947a22.713,22.713,0,0,0-1.892-9.348,15.237,15.237,0,0,0-5.306-6.568,13.547,13.547,0,0,0-7.815-2.326,13.144,13.144,0,0,0-10.734,5.168q-4.154,5.168-4.154,13.527Z"/>
    <path d="M366.984,327.146V267.188h20.524q10.158,0,15.465,4.078t5.3,12.147a12.957,12.957,0,0,1-2.22,7.412,14.3,14.3,0,0,1-6.5,5.107,13.214,13.214,0,0,1,7.5,4.962,14.46,14.46,0,0,1,2.654,8.751q0,8.441-5.409,12.971t-15.485,4.53Zm10.406-34.714h10.2q4.853,0,7.589-2.2a7.556,7.556,0,0,0,2.734-6.239q0-4.448-2.529-6.424t-7.876-1.976H377.39Zm0,7.659v18.736h11.557q4.894,0,7.651-2.43a8.533,8.533,0,0,0,2.755-6.752q0-9.348-9.542-9.554Z" fill="#555"/>
    <path d="M417.285,304.456a26.3,26.3,0,0,1,2.591-11.8,18.946,18.946,0,0,1,7.28-8.071,20.5,20.5,0,0,1,10.776-2.82q9.007,0,14.622,5.805t6.066,15.4l.041,2.346a26.554,26.554,0,0,1-2.529,11.778,18.724,18.724,0,0,1-7.239,8.03,20.655,20.655,0,0,1-10.878,2.841q-9.42,0-15.075-6.28t-5.655-16.739Zm9.994.864q0,6.877,2.838,10.769a9.223,9.223,0,0,0,7.9,3.891,9.122,9.122,0,0,0,7.876-3.953q2.817-3.952,2.817-11.571,0-6.753-2.9-10.707a9.767,9.767,0,0,0-15.651-.061Q427.28,297.579,427.279,305.32Z" fill="#555"/>
    <path d="M479.637,271.76v10.83h7.855V290h-7.855v24.872a5.477,5.477,0,0,0,1.008,3.686q1,1.132,3.6,1.132a15.35,15.35,0,0,0,3.5-.412v7.741a24.565,24.565,0,0,1-6.581.948q-11.517,0-11.515-12.724V290h-7.322V282.59h7.322V271.76Z" fill="#555"/>
  </g>
</svg>
